<svg width="400" height="353" viewBox="0 0 400 353" fill="none" xmlns="http://www.w3.org/2000/svg">
<path fill-rule="evenodd" clip-rule="evenodd" d="M80.472 221.33H257.376C258.377 221.33 259.353 221.219 260.292 221.009C261.231 221.219 262.207 221.33 263.208 221.33H364.296C371.811 221.33 377.904 215.078 377.904 207.365C377.904 199.652 371.811 193.4 364.296 193.4H352.632C345.117 193.4 339.024 187.148 339.024 179.435C339.024 171.722 345.117 165.47 352.632 165.47H389.568C397.083 165.47 403.176 159.218 403.176 151.505C403.176 143.792 397.083 137.54 389.568 137.54H346.8C354.315 137.54 360.408 131.288 360.408 123.575C360.408 115.862 354.315 109.61 346.8 109.61H222.384C229.899 109.61 235.992 103.358 235.992 95.6451C235.992 87.9324 229.899 81.6801 222.384 81.6801H111.576C104.061 81.6801 97.968 87.9324 97.968 95.6451C97.968 103.358 104.061 109.61 111.576 109.61H33.816C26.3005 109.61 20.208 115.862 20.208 123.575C20.208 131.288 26.3005 137.54 33.816 137.54H82.416C89.9315 137.54 96.024 143.792 96.024 151.505C96.024 159.218 89.9315 165.47 82.416 165.47H4.656C-2.85949 165.47 -8.952 171.722 -8.952 179.435C-8.952 187.148 -2.85949 193.4 4.656 193.4H80.472C72.9565 193.4 66.864 199.652 66.864 207.365C66.864 215.078 72.9565 221.33 80.472 221.33ZM397.344 221.33C404.859 221.33 410.952 215.078 410.952 207.365C410.952 199.652 404.859 193.4 397.344 193.4C389.828 193.4 383.736 199.652 383.736 207.365C383.736 215.078 389.828 221.33 397.344 221.33Z" fill="#75A4FE"/>
<path fill-rule="evenodd" clip-rule="evenodd" d="M136.848 233.3C113.228 233.3 94.08 214.096 94.08 190.407C94.08 166.719 113.228 147.515 136.848 147.515C137.852 147.515 138.849 147.55 139.836 147.618C139.15 143.7 138.792 139.665 138.792 135.545C138.792 98.0835 168.384 67.715 204.888 67.715C234.031 67.715 258.768 87.0704 267.56 113.938C269.643 113.715 271.758 113.6 273.9 113.6C306.646 113.6 333.192 140.396 333.192 173.45C333.192 204.852 309.233 230.761 278.76 233.256V233.3H168.939M160.168 233.3H146.629H160.168Z" fill="white"/>
<path d="M136.848 234.55C137.538 234.55 138.098 233.99 138.098 233.3C138.098 232.61 137.538 232.05 136.848 232.05V234.55ZM139.836 147.618L139.75 148.865L141.342 148.975L141.067 147.402L139.836 147.618ZM267.56 113.938L266.372 114.327L266.687 115.289L267.693 115.181L267.56 113.938ZM278.76 233.256L278.658 232.011L277.51 232.105V233.256H278.76ZM278.76 233.3V234.55H280.01V233.3H278.76ZM168.939 232.05C168.249 232.05 167.689 232.61 167.689 233.3C167.689 233.99 168.249 234.55 168.939 234.55V232.05ZM160.168 234.55C160.859 234.55 161.418 233.99 161.418 233.3C161.418 232.61 160.859 232.05 160.168 232.05V234.55ZM146.629 232.05C145.939 232.05 145.379 232.61 145.379 233.3C145.379 233.99 145.939 234.55 146.629 234.55V232.05ZM136.848 232.05C113.922 232.05 95.33 213.409 95.33 190.407H92.83C92.83 214.783 112.534 234.55 136.848 234.55V232.05ZM95.33 190.407C95.33 167.406 113.922 148.765 136.848 148.765V146.265C112.534 146.265 92.83 166.032 92.83 190.407H95.33ZM136.848 148.765C137.824 148.765 138.791 148.799 139.75 148.865L139.922 146.371C138.906 146.301 137.881 146.265 136.848 146.265V148.765ZM141.067 147.402C140.394 143.555 140.042 139.593 140.042 135.545H137.542C137.542 139.738 137.906 143.845 138.605 147.834L141.067 147.402ZM140.042 135.545C140.042 98.7431 169.105 68.965 204.888 68.965V66.465C167.664 66.465 137.542 97.4238 137.542 135.545H140.042ZM204.888 68.965C233.457 68.965 257.738 87.9405 266.372 114.327L268.748 113.549C259.799 86.2003 234.605 66.465 204.888 66.465V68.965ZM267.693 115.181C269.732 114.962 271.803 114.85 273.9 114.85V112.35C271.714 112.35 269.554 112.467 267.427 112.695L267.693 115.181ZM273.9 114.85C305.945 114.85 331.942 141.075 331.942 173.45H334.442C334.442 139.716 307.347 112.35 273.9 112.35V114.85ZM331.942 173.45C331.942 204.21 308.474 229.569 278.658 232.011L278.862 234.502C309.992 231.953 334.442 205.495 334.442 173.45H331.942ZM277.51 233.256V233.3H280.01V233.256H277.51ZM278.76 232.05H168.939V234.55H278.76V232.05ZM160.168 232.05H146.629V234.55H160.168V232.05Z" fill="#1F64E7"/>
<path fill-rule="evenodd" clip-rule="evenodd" d="M184.694 82.3636C184.694 146.649 241.11 199.62 313.752 206.772C304.649 218.26 290.59 226.053 274.574 227.278V227.315H144.125C128.297 227.315 101.856 220.472 101.856 190.504C101.856 160.536 122.412 153.693 144.125 153.693C145.048 153.693 145.964 153.723 146.871 153.781C146.241 150.419 146.13 146.953 145.911 143.42C144.437 119.553 154.583 89.4745 184.729 79.6851C184.705 80.5775 184.694 81.4694 184.694 82.3636Z" fill="#F3F7FF"/>
<path d="M224.328 91.655C236.981 95.0916 246.972 105.247 250.456 118.175" stroke="#1F64E7" stroke-width="2.5" stroke-linecap="round"/>
<path d="M167.952 156.492C167.952 163.654 174.045 169.46 181.56 169.46C189.075 169.46 195.168 163.654 195.168 156.492" stroke="#1F64E7" stroke-width="2.5" stroke-linecap="round"/>
<path d="M224.328 156.492C224.328 163.654 230.421 169.46 237.936 169.46C245.451 169.46 251.544 163.654 251.544 156.492" stroke="#1F64E7" stroke-width="2.5" stroke-linecap="round"/>
<path d="M195.168 193.4H223.356" stroke="#1F64E7" stroke-width="2.5" stroke-linecap="round"/>
<path fill-rule="evenodd" clip-rule="evenodd" d="M92.4393 74.2826H69.2162V79.0227H85.6392L67.8477 101.143V105.62H92.867V100.88H74.6478L92.4393 78.4521V74.2826ZM118.512 104.774H101.623V108.222H113.567L100.627 124.309V127.565H118.823V124.118H105.573L118.512 107.807V104.774Z" fill="#1F64E7"/>
</svg>
